<svg width="16" height="25" viewBox="0 0 16 25" fill="none" xmlns="http://www.w3.org/2000/svg">
<path d="M12.702 0.934018H12.7204L12.7387 0.93267C13.084 0.907256 13.431 0.951707 13.7588 1.06337C14.077 1.17177 14.3708 1.34134 14.6238 1.56245C14.8452 1.82131 15.0147 2.12061 15.1226 2.44394C15.2338 2.77689 15.2776 3.12865 15.2514 3.4787L15.25 3.49733V3.51602V23.382V23.3965L15.2508 23.411C15.2616 23.5963 15.2055 23.7792 15.0932 23.9266C15.0496 23.9724 14.9969 24.0087 14.9384 24.0331C14.8757 24.0592 14.8079 24.071 14.74 24.0676L14.728 24.067L14.716 24.067C14.5959 24.0668 14.4792 24.0271 14.3839 23.954C14.0964 23.7261 13.8218 23.4825 13.5613 23.2242C13.5609 23.2238 13.5605 23.2234 13.56 23.223L8.71149 18.3405C8.65926 18.2812 8.59598 18.2324 8.52502 18.1969C8.43961 18.1542 8.34544 18.132 8.24998 18.132C8.15452 18.132 8.06035 18.1542 7.97494 18.1969C7.90398 18.2324 7.8407 18.2812 7.78847 18.3405L2.93719 23.2257L2.93474 23.2282C2.67912 23.4892 2.40565 23.7322 2.11632 23.9552C2.01927 24.0268 1.90208 24.0659 1.78145 24.067L1.7712 24.0671L1.76095 24.0676C1.69308 24.071 1.6253 24.0592 1.56258 24.0331C1.50402 24.0086 1.45126 23.9723 1.40762 23.9264C1.29489 23.7791 1.23856 23.5961 1.24917 23.4105L1.24998 23.3963V23.382V3.51602V3.49733L1.24859 3.4787C1.22239 3.12865 1.26615 2.77689 1.37733 2.44394C1.48529 2.12061 1.65472 1.82131 1.87621 1.56245C2.12916 1.34134 2.42299 1.17177 2.7412 1.06337C3.06899 0.951707 3.41593 0.907256 3.76129 0.93267L3.77961 0.934018H3.79798H12.702Z" stroke="black"/>
</svg>
