<svg width="22" height="22" viewBox="0 0 22 22" fill="none" xmlns="http://www.w3.org/2000/svg">
<path d="M12.6819 9.67126V14.6713M2.68188 4.67127H18.6819L17.1019 18.8913C17.0477 19.3806 16.815 19.8328 16.4481 20.1613C16.0813 20.4897 15.6062 20.6713 15.1139 20.6713H6.24988C5.75752 20.6713 5.28245 20.4897 4.91563 20.1613C4.54882 19.8328 4.31604 19.3806 4.26188 18.8913L2.68188 4.67127ZM6.02688 1.81826C6.18864 1.47523 6.44459 1.18526 6.76489 0.982176C7.08519 0.77909 7.45663 0.67126 7.83589 0.671265H13.5279C13.9073 0.671071 14.279 0.778811 14.5995 0.981908C14.92 1.185 15.1761 1.47508 15.3379 1.81826L16.6819 4.67127H4.68188L6.02688 1.81826V1.81826ZM0.681885 4.67127H20.6819H0.681885ZM8.68188 9.67126V14.6713V9.67126Z" stroke="red" stroke-linecap="round" stroke-linejoin="round"/>
</svg>
