{
    "asset" : {
        "generator" : "Khronos glTF Blender I/O v1.7.33",
        "version" : "2.0"
    },
    "scene" : 0,
    "scenes" : [
        {
            "name" : "Scene",
            "nodes" : [
                8
            ]
        }
    ],
    "nodes" : [
        {
            "mesh" : 0,
            "name" : "Object_8"
        },
        {
            "children" : [
                0
            ],
            "name" : "Charniere_5"
        },
        {
            "mesh" : 1,
            "name" : "Object_6",
            "rotation" : [
                -0.00038478407077491283,
                0,
                -0.1587403118610382,
                0.9873204231262207
            ]
        },
        {
            "children" : [
                1,
                2
            ],
            "name" : "Ecran_6",
            "translation" : [
                0.12125862389802933,
                0.007316870614886284,
                0
            ]
        },
        {
            "mesh" : 2,
            "name" : "Object_4"
        },
        {
            "children" : [
                4
            ],
            "name" : "MacBook Body_2"
        },
        {
            "children" : [
                3,
                5
            ],
            "name" : "GLTF_SceneRootNode",
            "rotation" : [
                0.7071068286895752,
                0,
                0,
                0.7071068286895752
            ]
        },
        {
            "children" : [
                6
            ],
            "name" : "root"
        },
        {
            "children" : [
                7
            ],
            "name" : "Sketchfab_model",
            "rotation" : [
                -0.5006056427955627,
                0.49939364194869995,
                0.49939364194869995,
                0.5006056427955627
            ],
            "scale" : [
                0.8402431011199951,
                0.8402431011199951,
                0.8402430415153503
            ],
            "translation" : [
                0,
                -0.0070780618116259575,
                0
            ]
        }
    ],
    "materials" : [
        {
            "doubleSided" : true,
            "emissiveFactor" : [
                1,
                1,
                1
            ],
            "emissiveTexture" : {
                "index" : 0
            },
            "name" : "MacBookPro",
            "normalTexture" : {
                "index" : 1
            },
            "pbrMetallicRoughness" : {
                "baseColorTexture" : {
                    "index" : 2
                },
                "metallicRoughnessTexture" : {
                    "index" : 3
                }
            }
        }
    ],
    "meshes" : [
        {
            "name" : "Object_2",
            "primitives" : [
                {
                    "attributes" : {
                        "POSITION" : 0,
                        "NORMAL" : 1,
                        "TEXCOORD_0" : 2,
                        "TEXCOORD_1" : 3,
                        "TEXCOORD_2" : 4,
                        "TEXCOORD_3" : 5,
                        "TEXCOORD_4" : 6
                    },
                    "indices" : 7,
                    "material" : 0
                }
            ]
        },
        {
            "name" : "Object_1",
            "primitives" : [
                {
                    "attributes" : {
                        "POSITION" : 8,
                        "NORMAL" : 9,
                        "TEXCOORD_0" : 10,
                        "TEXCOORD_1" : 11,
                        "TEXCOORD_2" : 12,
                        "TEXCOORD_3" : 13,
                        "TEXCOORD_4" : 14
                    },
                    "indices" : 15,
                    "material" : 0
                }
            ]
        },
        {
            "name" : "Object_0",
            "primitives" : [
                {
                    "attributes" : {
                        "POSITION" : 16,
                        "NORMAL" : 17,
                        "TEXCOORD_0" : 18,
                        "TEXCOORD_1" : 19,
                        "TEXCOORD_2" : 20,
                        "TEXCOORD_3" : 21,
                        "TEXCOORD_4" : 22
                    },
                    "indices" : 23,
                    "material" : 0
                }
            ]
        }
    ],
    "textures" : [
        {
            "sampler" : 0,
            "source" : 0
        },
        {
            "sampler" : 0,
            "source" : 1
        },
        {
            "sampler" : 0,
            "source" : 2
        },
        {
            "sampler" : 0,
            "source" : 3
        }
    ],
    "images" : [
        {
            "mimeType" : "image/jpeg",
            "name" : "MacBookPro_emissive",
            "uri" : "textures/MacBookPro_emissive.jpg"
        },
        {
            "mimeType" : "image/png",
            "name" : "MacBookPro_normal",
            "uri" : "textures/MacBookPro_normal.png"
        },
        {
            "mimeType" : "image/jpeg",
            "name" : "MacBookPro_baseColor",
            "uri" : "textures/MacBookPro_baseColor.jpg"
        },
        {
            "mimeType" : "image/png",
            "name" : "MacBookPro_metallicRoughness",
            "uri" : "textures/MacBookPro_metallicRoughness.png"
        }
    ],
    "accessors" : [
        {
            "bufferView" : 0,
            "componentType" : 5126,
            "count" : 62,
            "max" : [
                0.0039263092912733555,
                0.002899999963119626,
                0.13993234932422638
            ],
            "min" : [
                -0.003217262215912342,
                -0.002425245475023985,
                -0.13993234932422638
            ],
            "type" : "VEC3"
        },
        {
            "bufferView" : 1,
            "componentType" : 5126,
            "count" : 62,
            "type" : "VEC3"
        },
        {
            "bufferView" : 2,
            "componentType" : 5126,
            "count" : 62,
            "type" : "VEC2"
        },
        {
            "bufferView" : 3,
            "componentType" : 5126,
            "count" : 62,
            "type" : "VEC2"
        },
        {
            "bufferView" : 4,
            "componentType" : 5126,
            "count" : 62,
            "type" : "VEC2"
        },
        {
            "bufferView" : 5,
            "componentType" : 5126,
            "count" : 62,
            "type" : "VEC2"
        },
        {
            "bufferView" : 6,
            "componentType" : 5126,
            "count" : 62,
            "type" : "VEC2"
        },
        {
            "bufferView" : 7,
            "componentType" : 5123,
            "count" : 102,
            "type" : "SCALAR"
        },
        {
            "bufferView" : 8,
            "componentType" : 5126,
            "count" : 265,
            "max" : [
                0.007284813094884157,
                0.24420861899852753,
                0.1789500117301941
            ],
            "min" : [
                0.003784813452512026,
                -0.001691378653049469,
                -0.1789500117301941
            ],
            "type" : "VEC3"
        },
        {
            "bufferView" : 9,
            "componentType" : 5126,
            "count" : 265,
            "type" : "VEC3"
        },
        {
            "bufferView" : 10,
            "componentType" : 5126,
            "count" : 265,
            "type" : "VEC2"
        },
        {
            "bufferView" : 11,
            "componentType" : 5126,
            "count" : 265,
            "type" : "VEC2"
        },
        {
            "bufferView" : 12,
            "componentType" : 5126,
            "count" : 265,
            "type" : "VEC2"
        },
        {
            "bufferView" : 13,
            "componentType" : 5126,
            "count" : 265,
            "type" : "VEC2"
        },
        {
            "bufferView" : 14,
            "componentType" : 5126,
            "count" : 265,
            "type" : "VEC2"
        },
        {
            "bufferView" : 15,
            "componentType" : 5123,
            "count" : 924,
            "type" : "SCALAR"
        },
        {
            "bufferView" : 16,
            "componentType" : 5126,
            "count" : 996,
            "max" : [
                0.12294983118772507,
                0.010354000143706799,
                0.1789497584104538
            ],
            "min" : [
                -0.12294983118772507,
                0,
                -0.1789497584104538
            ],
            "type" : "VEC3"
        },
        {
            "bufferView" : 17,
            "componentType" : 5126,
            "count" : 996,
            "type" : "VEC3"
        },
        {
            "bufferView" : 18,
            "componentType" : 5126,
            "count" : 996,
            "type" : "VEC2"
        },
        {
            "bufferView" : 19,
            "componentType" : 5126,
            "count" : 996,
            "type" : "VEC2"
        },
        {
            "bufferView" : 20,
            "componentType" : 5126,
            "count" : 996,
            "type" : "VEC2"
        },
        {
            "bufferView" : 21,
            "componentType" : 5126,
            "count" : 996,
            "type" : "VEC2"
        },
        {
            "bufferView" : 22,
            "componentType" : 5126,
            "count" : 996,
            "type" : "VEC2"
        },
        {
            "bufferView" : 23,
            "componentType" : 5123,
            "count" : 2544,
            "type" : "SCALAR"
        }
    ],
    "bufferViews" : [
        {
            "buffer" : 0,
            "byteLength" : 744,
            "byteOffset" : 0
        },
        {
            "buffer" : 0,
            "byteLength" : 744,
            "byteOffset" : 744
        },
        {
            "buffer" : 0,
            "byteLength" : 496,
            "byteOffset" : 1488
        },
        {
            "buffer" : 0,
            "byteLength" : 496,
            "byteOffset" : 1984
        },
        {
            "buffer" : 0,
            "byteLength" : 496,
            "byteOffset" : 2480
        },
        {
            "buffer" : 0,
            "byteLength" : 496,
            "byteOffset" : 2976
        },
        {
            "buffer" : 0,
            "byteLength" : 496,
            "byteOffset" : 3472
        },
        {
            "buffer" : 0,
            "byteLength" : 204,
            "byteOffset" : 3968
        },
        {
            "buffer" : 0,
            "byteLength" : 3180,
            "byteOffset" : 4172
        },
        {
            "buffer" : 0,
            "byteLength" : 3180,
            "byteOffset" : 7352
        },
        {
            "buffer" : 0,
            "byteLength" : 2120,
            "byteOffset" : 10532
        },
        {
            "buffer" : 0,
            "byteLength" : 2120,
            "byteOffset" : 12652
        },
        {
            "buffer" : 0,
            "byteLength" : 2120,
            "byteOffset" : 14772
        },
        {
            "buffer" : 0,
            "byteLength" : 2120,
            "byteOffset" : 16892
        },
        {
            "buffer" : 0,
            "byteLength" : 2120,
            "byteOffset" : 19012
        },
        {
            "buffer" : 0,
            "byteLength" : 1848,
            "byteOffset" : 21132
        },
        {
            "buffer" : 0,
            "byteLength" : 11952,
            "byteOffset" : 22980
        },
        {
            "buffer" : 0,
            "byteLength" : 11952,
            "byteOffset" : 34932
        },
        {
            "buffer" : 0,
            "byteLength" : 7968,
            "byteOffset" : 46884
        },
        {
            "buffer" : 0,
            "byteLength" : 7968,
            "byteOffset" : 54852
        },
        {
            "buffer" : 0,
            "byteLength" : 7968,
            "byteOffset" : 62820
        },
        {
            "buffer" : 0,
            "byteLength" : 7968,
            "byteOffset" : 70788
        },
        {
            "buffer" : 0,
            "byteLength" : 7968,
            "byteOffset" : 78756
        },
        {
            "buffer" : 0,
            "byteLength" : 5088,
            "byteOffset" : 86724
        }
    ],
    "samplers" : [
        {
            "magFilter" : 9729,
            "minFilter" : 9987
        }
    ],
    "buffers" : [
        {
            "byteLength" : 91812,
            "uri" : "scene.bin"
        }
    ]
}
